# Blender v2.60 (sub 0) OBJ File: 'humanfigure25.blend'
# www.blender.org
o Mesh_Cube-mesh
v -0.204055 -0.132665 0.470496
v -0.149195 -0.352163 0.359447
v 0.172334 -0.352163 0.399393
v 0.197315 -0.132665 0.463886
v 0.158890 -0.352163 -0.397695
v -0.161179 -0.352163 -0.351060
v -0.219688 -0.132665 -0.456365
v 0.181682 -0.132665 -0.462975
v 0.421823 -0.428918 -0.158442
v 0.431411 -0.132665 -0.227764
v 0.438798 -0.132665 0.210220
v 0.424752 -0.428918 0.147778
v -0.334177 -0.352163 0.194552
v -0.453958 -0.132665 0.224921
v -0.461346 -0.132665 -0.213063
v -0.340606 -0.352163 -0.186655
v -0.152026 -0.471693 0.191553
v -0.158456 -0.471693 -0.189655
v 0.162309 -0.493246 -0.194937
v 0.168739 -0.493246 0.186271
v -0.505445 0.173551 -0.212337
v -0.498057 0.173551 0.225647
v -0.399839 0.364083 0.195634
v -0.406268 0.364083 -0.185574
v 0.181682 0.173551 -0.462975
v -0.219688 0.173551 -0.456366
v -0.194707 0.364083 -0.391872
v 0.158890 0.364083 -0.397695
v -0.181262 0.364083 0.405216
v -0.204055 0.173551 0.470496
v 0.197315 0.173551 0.463886
v 0.172334 0.364083 0.399393
v 0.438798 0.173551 0.210220
v 0.431411 0.173551 -0.227764
v 0.377291 0.364083 -0.198477
v 0.383721 0.364083 0.182731
v -0.184857 0.461629 0.192094
v 0.168739 0.461629 0.186271
v 0.162310 0.461629 -0.194937
v -0.191287 0.461629 -0.189114
v -0.166289 -0.252702 0.408407
v 0.011655 -0.358803 0.384484
v -0.001263 -0.358803 -0.381379
v 0.465816 -0.132665 -0.009278
v 0.441118 -0.310178 0.203083
v -0.407598 -0.252702 0.217058
v -0.488364 -0.132665 0.006435
v -0.414745 -0.252702 -0.206731
v -0.364691 -0.358803 0.004398
v -0.167185 -0.486871 0.001146
v 0.177468 -0.508425 -0.004529
v 0.008596 -0.486871 0.203106
v -0.532462 0.173551 0.007161
v -0.430353 0.369503 0.005479
v -0.468055 0.280065 -0.205854
v -0.003203 0.173551 -0.496439
v -0.213443 0.280065 -0.440242
v -0.002040 0.369503 -0.427497
v 0.175984 0.280065 -0.446655
v -0.198357 0.280065 0.454176
v 0.013662 0.173551 0.503419
v 0.191070 0.280065 0.447763
v 0.012499 0.369503 0.434477
v 0.425029 0.280065 0.203348
v 0.465816 0.173551 -0.009278
v 0.407805 0.369503 -0.008322
v 0.001687 0.474015 -0.206490
v -0.200015 0.474015 0.001687
v 0.337087 -0.132665 -0.356007
v 0.348782 -0.132665 0.337321
v 0.348245 -0.422277 0.285609
v -0.371400 -0.132665 -0.344341
v -0.261357 -0.345522 -0.294432
v 0.438798 -0.005482 0.210220
v 0.181682 -0.005482 -0.462975
v -0.219688 -0.005482 -0.456365
v 0.197315 -0.005482 0.463886
v -0.204055 -0.005482 0.470496
v -0.505445 -0.005482 -0.212337
v 0.148571 -0.426632 -0.301182
v -0.259323 -0.426632 -0.173796
v -0.319034 0.424855 0.180105
v -0.324984 0.424855 -0.172714
v -0.371400 0.173551 -0.344341
v -0.327019 0.358664 -0.293351
v -0.359705 0.173551 0.348988
v -0.181139 0.424855 -0.295753
v 0.148571 0.424855 -0.301182
v 0.158766 0.424855 0.303274
v 0.337087 0.173551 -0.356007
v 0.294451 0.358664 -0.303584
v 0.348782 0.173551 0.337321
v 0.304646 0.358664 0.300872
v 0.302437 0.424855 0.169872
v -0.170944 0.424855 0.308703
v 0.296486 0.424855 -0.182948
v -0.316824 0.358664 0.311105
v -0.138113 -0.426632 0.308162
v 0.158766 -0.426632 0.303274
v -0.148308 -0.426632 -0.296294
v -0.253372 -0.426632 0.179024
v 0.368138 -0.500729 0.134512
v 0.365688 -0.500729 -0.143320
v -0.498057 -0.005482 0.225647
v 0.431411 -0.005482 -0.227764
v -0.251407 -0.345522 0.295483
v -0.359705 -0.132665 0.348988
v 0.338295 -0.422277 -0.304306
v 0.008596 0.474015 0.203106
v 0.177468 0.474015 -0.004529
v 0.417881 0.280065 -0.220442
v -0.460907 0.280065 0.217936
v 0.001687 -0.486871 -0.206490
v 0.191070 -0.252702 0.447763
v 0.013661 -0.132665 0.503419
v 0.175984 -0.252702 -0.446655
v -0.003203 -0.132665 -0.496439
v -0.179915 -0.252702 -0.399430
v 0.433970 -0.310178 -0.220707
v 0.451649 -0.435558 -0.009044
v 0.012527 -0.254362 0.436191
v -0.002135 -0.254362 -0.433085
v 0.467403 -0.311839 -0.009304
v -0.441030 -0.254362 0.005655
v 0.005142 -0.502999 -0.001692
v -0.494340 0.281419 0.006533
v -0.002912 0.281419 -0.479203
v 0.013371 0.281419 0.486184
v 0.451313 0.281419 -0.009039
v 0.005142 0.487175 -0.001692
v 0.342518 -0.308518 -0.343167
v 0.353776 -0.308518 0.324309
v -0.316215 -0.251042 0.335341
v -0.327473 -0.251042 -0.332134
v 0.465816 -0.005482 -0.009278
v -0.003203 -0.005482 -0.496439
v 0.013662 -0.005482 0.503419
v -0.532462 -0.005482 0.007161
v 0.389730 -0.512825 -0.008025
v 0.010762 -0.438727 0.331572
v -0.000305 -0.438727 -0.324591
v -0.278101 -0.438727 0.002972
v -0.343763 0.434726 0.004054
v -0.360304 0.278710 -0.331594
v -0.349046 0.278710 0.335882
v -0.000305 0.434726 -0.324591
v 0.010763 0.434726 0.331572
v 0.326428 0.278710 -0.342901
v 0.337687 0.278710 0.324573
v 0.321216 0.434726 -0.006897
v 0.337087 -0.005482 -0.356007
v 0.348782 -0.005482 0.337321
v -0.371400 -0.005482 -0.344341
v -0.359705 -0.005482 0.348988
v 0.319773 -0.457327 -0.251605
v 0.327956 -0.457326 0.233546
v -0.216397 -0.402125 -0.242776
v -0.208214 -0.402126 0.242375
v -0.273631 0.404856 0.257997
v -0.282059 0.404856 -0.241694
v 0.251258 0.404856 -0.250476
v 0.259686 0.404856 0.249215
vn -0.372875 -0.224860 0.900204
vn -0.297525 -0.473312 0.829096
vn -0.068300 -0.426954 0.901669
vn 0.000824 -0.204138 0.978912
vn 0.030946 0.000000 0.999512
vn -0.395337 0.000000 0.918516
vn -0.656972 -0.031892 0.753197
vn -0.665731 -0.218635 0.713431
vn -0.581408 -0.473495 0.661611
vn -0.316324 -0.552660 0.771020
vn -0.072359 -0.544572 0.835566
vn -0.510849 -0.620441 0.595019
vn -0.502945 -0.708701 0.494705
vn -0.316568 -0.754295 0.575152
vn -0.034577 -0.791833 0.609729
vn 0.153417 -0.562487 0.812433
vn 0.295541 -0.301859 0.906369
vn 0.073397 -0.827815 0.556108
vn 0.279550 -0.820429 0.498703
vn 0.500748 -0.588824 0.634419
vn 0.672628 -0.211066 0.709220
vn 0.401868 -0.105869 0.909513
vn 0.725639 -0.025025 0.687582
vn 0.734764 0.000000 0.678304
vn 0.438581 0.000000 0.898679
vn 0.106357 -0.565935 -0.817530
vn -0.092227 -0.554277 -0.827174
vn -0.090457 -0.418470 -0.903684
vn 0.242409 -0.297739 -0.923338
vn 0.630482 -0.214881 -0.745842
vn 0.466231 -0.592212 -0.657155
vn 0.256294 -0.824000 -0.505264
vn 0.043123 -0.824458 -0.564257
vn -0.051210 -0.789727 -0.611286
vn -0.313944 -0.559801 -0.766839
vn -0.301004 -0.460189 -0.835200
vn -0.314127 -0.758995 -0.570238
vn -0.495804 -0.718314 -0.488021
vn -0.508621 -0.624653 -0.592517
vn -0.589068 -0.470382 -0.657033
vn -0.376537 -0.214606 -0.901181
vn -0.029328 -0.195166 -0.980316
vn -0.675649 -0.216285 -0.704733
vn -0.665456 -0.032472 -0.745720
vn -0.398175 0.000000 -0.917295
vn -0.001984 0.000000 -0.999969
vn 0.345592 -0.102206 -0.932798
vn 0.381054 0.000000 -0.924528
vn 0.695944 0.000000 -0.718070
vn 0.685629 -0.025819 -0.727470
vn 0.839290 -0.439161 -0.320414
vn 0.909970 -0.122379 -0.396161
vn 0.996918 -0.076601 -0.016022
vn 0.914060 -0.405316 -0.013672
vn 0.446760 -0.894589 -0.006714
vn 0.381970 -0.881802 -0.276528
vn 0.921293 -0.001923 -0.388806
vn 0.999847 0.004242 -0.016846
vn 0.922910 0.000000 -0.384960
vn 0.999847 0.000000 -0.016846
vn 0.930937 -0.002197 0.365093
vn 0.920042 -0.122440 0.372112
vn 0.932554 0.000000 0.361003
vn 0.843165 -0.442457 0.305429
vn 0.387310 -0.881466 0.270058
vn -0.663472 -0.673360 0.326060
vn -0.800653 -0.480209 0.358165
vn -0.875332 -0.483261 0.014740
vn -0.741234 -0.671102 0.012482
vn -0.551988 -0.833796 0.009278
vn -0.523942 -0.800195 0.291757
vn -0.864254 -0.292123 0.409467
vn -0.938108 -0.345897 0.015809
vn -0.886166 -0.121342 0.447157
vn -0.986358 -0.163762 0.016602
vn -0.880490 -0.292734 -0.372784
vn -0.814692 -0.480850 -0.324046
vn -0.903806 -0.121494 -0.410291
vn -0.676992 -0.673666 -0.296335
vn -0.530869 -0.802698 -0.271676
vn -0.290017 -0.921293 0.258980
vn -0.259896 -0.965606 0.004364
vn -0.064516 -0.997894 0.001068
vn -0.041292 -0.967711 0.248604
vn -0.291055 -0.921110 -0.258492
vn -0.049471 -0.963286 -0.263771
vn 0.013001 -0.958129 -0.285958
vn -0.025086 -0.999664 -0.000061
vn 0.024293 -0.960631 0.276742
vn -0.894375 0.144749 -0.423231
vn -0.985656 0.167852 0.016602
vn -0.883755 0.467666 0.014893
vn -0.815577 0.435560 -0.380902
vn -0.628529 0.368450 -0.684957
vn -0.653676 0.095370 -0.750694
vn -0.876095 0.144688 0.459822
vn -0.804559 0.427076 0.412580
vn -0.645253 0.094607 0.758049
vn -0.628712 0.348521 0.695120
vn -0.655049 0.687887 0.312571
vn -0.710288 0.703787 0.011963
vn -0.516678 0.653951 0.552568
vn -0.371349 0.837642 0.400525
vn -0.420026 0.876522 0.235023
vn -0.447310 0.894314 0.007538
vn -0.654927 0.695212 -0.296152
vn -0.424879 0.873714 -0.236793
vn -0.379284 0.828639 -0.411664
vn -0.511826 0.673055 -0.533830
vn 0.379772 0.079379 -0.921659
vn -0.001953 0.079104 -0.996857
vn -0.001068 0.338084 -0.941099
vn 0.362651 0.340556 -0.867458
vn 0.652058 0.334178 -0.680532
vn 0.692831 0.076632 -0.716971
vn -0.396832 0.079592 -0.914426
vn -0.377850 0.341166 -0.860683
vn -0.302805 0.683706 -0.663930
vn 0.001526 0.691031 -0.722770
vn -0.225532 0.878140 -0.421827
vn 0.003815 0.899228 -0.437422
vn 0.294198 0.682455 -0.669057
vn 0.222785 0.876125 -0.427442
vn 0.365459 0.828547 -0.424177
vn 0.512772 0.659658 -0.549394
vn -0.292978 0.673513 0.678579
vn -0.372387 0.329142 0.867702
vn 0.029908 0.338084 0.940611
vn 0.025330 0.691061 0.722343
vn 0.017975 0.904477 0.426130
vn -0.210334 0.884701 0.415906
vn -0.393780 0.079745 0.915708
vn 0.030854 0.079104 0.996368
vn 0.436933 0.079531 0.895962
vn 0.414014 0.328623 0.848842
vn 0.731712 0.076113 0.677328
vn 0.696829 0.313028 0.645283
vn 0.328532 0.672384 0.663259
vn 0.552721 0.640828 0.532701
vn 0.384381 0.837733 0.387829
vn 0.235023 0.882900 0.406476
vn 0.929319 0.071902 0.362163
vn 0.997589 0.067110 -0.016816
vn 0.955351 0.295022 -0.016083
vn 0.886410 0.303873 0.349132
vn 0.919675 0.071749 -0.385968
vn 0.872097 0.313700 -0.375469
vn 0.695914 0.645161 -0.315287
vn 0.769433 0.638539 -0.012940
vn 0.416791 0.873653 -0.250954
vn 0.447310 0.894314 -0.007538
vn 0.715323 0.637837 0.285318
vn 0.427595 0.876583 0.220740
vn -0.182684 0.961577 0.204810
vn 0.011170 0.981780 0.189581
vn 0.006500 0.999969 -0.000092
vn -0.171300 0.985198 0.002869
vn 0.196997 0.960204 0.197943
vn 0.177496 0.984100 -0.002991
vn 0.193030 0.955962 -0.220954
vn 0.004852 0.979095 -0.203223
vn -0.192450 0.957457 -0.214972
usemtl Green
s 1
f 1//1 41//2 121//3
f 1//1 121//3 115//4
f 1//1 115//4 137//5
f 1//1 137//5 78//6
f 1//1 78//6 154//7
f 1//1 154//7 107//8
f 1//1 107//8 133//9
f 1//1 133//9 41//2
f 2//10 42//11 121//3
f 2//10 121//3 41//2
f 2//10 41//2 133//9
f 2//10 133//9 106//12
f 2//10 106//12 158//13
f 2//10 158//13 98//14
f 2//10 98//14 140//15
f 2//10 140//15 42//11
f 3//16 114//17 121//3
f 3//16 121//3 42//11
f 3//16 42//11 140//15
f 3//16 140//15 99//18
f 3//16 99//18 156//19
f 3//16 156//19 71//20
f 3//16 71//20 132//21
f 3//16 132//21 114//17
f 4//22 115//4 121//3
f 4//22 121//3 114//17
f 4//22 114//17 132//21
f 4//22 132//21 70//23
f 4//22 70//23 152//24
f 4//22 152//24 77//25
f 4//22 77//25 137//5
f 4//22 137//5 115//4
f 5//26 43//27 122//28
f 5//26 122//28 116//29
f 5//26 116//29 131//30
f 5//26 131//30 108//31
f 5//26 108//31 155//32
f 5//26 155//32 80//33
f 5//26 80//33 141//34
f 5//26 141//34 43//27
f 6//35 118//36 122//28
f 6//35 122//28 43//27
f 6//35 43//27 141//34
f 6//35 141//34 100//37
f 6//35 100//37 157//38
f 6//35 157//38 73//39
f 6//35 73//39 134//40
f 6//35 134//40 118//36
f 7//41 117//42 122//28
f 7//41 122//28 118//36
f 7//41 118//36 134//40
f 7//41 134//40 72//43
f 7//41 72//43 153//44
f 7//41 153//44 76//45
f 7//41 76//45 136//46
f 7//41 136//46 117//42
f 8//47 116//29 122//28
f 8//47 122//28 117//42
f 8//47 117//42 136//46
f 8//47 136//46 75//48
f 8//47 75//48 151//49
f 8//47 151//49 69//50
f 8//47 69//50 131//30
f 8//47 131//30 116//29
f 9//51 119//52 123//53
f 9//51 123//53 120//54
f 9//51 120//54 139//55
f 9//51 139//55 103//56
f 9//51 103//56 155//32
f 9//51 155//32 108//31
f 9//51 108//31 131//30
f 9//51 131//30 119//52
f 10//57 44//58 123//53
f 10//57 123//53 119//52
f 10//57 119//52 131//30
f 10//57 131//30 69//50
f 10//57 69//50 151//49
f 10//57 151//49 105//59
f 10//57 105//59 135//60
f 10//57 135//60 44//58
f 11//61 45//62 123//53
f 11//61 123//53 44//58
f 11//61 44//58 135//60
f 11//61 135//60 74//63
f 11//61 74//63 152//24
f 11//61 152//24 70//23
f 11//61 70//23 132//21
f 11//61 132//21 45//62
f 12//64 120//54 123//53
f 12//64 123//53 45//62
f 12//64 45//62 132//21
f 12//64 132//21 71//20
f 12//64 71//20 156//19
f 12//64 156//19 102//65
f 12//64 102//65 139//55
f 12//64 139//55 120//54
f 13//66 46//67 124//68
f 13//66 124//68 49//69
f 13//66 49//69 142//70
f 13//66 142//70 101//71
f 13//66 101//71 158//13
f 13//66 158//13 106//12
f 13//66 106//12 133//9
f 13//66 133//9 46//67
f 14//72 47//73 124//68
f 14//72 124//68 46//67
f 14//72 46//67 133//9
f 14//72 133//9 107//8
f 14//72 107//8 154//7
f 14//72 154//7 104//74
f 14//72 104//74 138//75
f 14//72 138//75 47//73
f 15//76 48//77 124//68
f 15//76 124//68 47//73
f 15//76 47//73 138//75
f 15//76 138//75 79//78
f 15//76 79//78 153//44
f 15//76 153//44 72//43
f 15//76 72//43 134//40
f 15//76 134//40 48//77
f 16//79 49//69 124//68
f 16//79 124//68 48//77
f 16//79 48//77 134//40
f 16//79 134//40 73//39
f 16//79 73//39 157//38
f 16//79 157//38 81//80
f 16//79 81//80 142//70
f 16//79 142//70 49//69
f 17//81 50//82 125//83
f 17//81 125//83 52//84
f 17//81 52//84 140//15
f 17//81 140//15 98//14
f 17//81 98//14 158//13
f 17//81 158//13 101//71
f 17//81 101//71 142//70
f 17//81 142//70 50//82
f 18//85 113//86 125//83
f 18//85 125//83 50//82
f 18//85 50//82 142//70
f 18//85 142//70 81//80
f 18//85 81//80 157//38
f 18//85 157//38 100//37
f 18//85 100//37 141//34
f 18//85 141//34 113//86
f 19//87 51//88 125//83
f 19//87 125//83 113//86
f 19//87 113//86 141//34
f 19//87 141//34 80//33
f 19//87 80//33 155//32
f 19//87 155//32 103//56
f 19//87 103//56 139//55
f 19//87 139//55 51//88
f 20//89 52//84 125//83
f 20//89 125//83 51//88
f 20//89 51//88 139//55
f 20//89 139//55 102//65
f 20//89 102//65 156//19
f 20//89 156//19 99//18
f 20//89 99//18 140//15
f 20//89 140//15 52//84
f 21//90 53//91 126//92
f 21//90 126//92 55//93
f 21//90 55//93 144//94
f 21//90 144//94 84//95
f 21//90 84//95 153//44
f 21//90 153//44 79//78
f 21//90 79//78 138//75
f 21//90 138//75 53//91
f 22//96 112//97 126//92
f 22//96 126//92 53//91
f 22//96 53//91 138//75
f 22//96 138//75 104//74
f 22//96 104//74 154//7
f 22//96 154//7 86//98
f 22//96 86//98 145//99
f 22//96 145//99 112//97
f 23//100 54//101 126//92
f 23//100 126//92 112//97
f 23//100 112//97 145//99
f 23//100 145//99 97//102
f 23//100 97//102 159//103
f 23//100 159//103 82//104
f 23//100 82//104 143//105
f 23//100 143//105 54//101
f 24//106 55//93 126//92
f 24//106 126//92 54//101
f 24//106 54//101 143//105
f 24//106 143//105 83//107
f 24//106 83//107 160//108
f 24//106 160//108 85//109
f 24//106 85//109 144//94
f 24//106 144//94 55//93
f 25//110 56//111 127//112
f 25//110 127//112 59//113
f 25//110 59//113 148//114
f 25//110 148//114 90//115
f 25//110 90//115 151//49
f 25//110 151//49 75//48
f 25//110 75//48 136//46
f 25//110 136//46 56//111
f 26//116 57//117 127//112
f 26//116 127//112 56//111
f 26//116 56//111 136//46
f 26//116 136//46 76//45
f 26//116 76//45 153//44
f 26//116 153//44 84//95
f 26//116 84//95 144//94
f 26//116 144//94 57//117
f 27//118 58//119 127//112
f 27//118 127//112 57//117
f 27//118 57//117 144//94
f 27//118 144//94 85//109
f 27//118 85//109 160//108
f 27//118 160//108 87//120
f 27//118 87//120 146//121
f 27//118 146//121 58//119
f 28//122 59//113 127//112
f 28//122 127//112 58//119
f 28//122 58//119 146//121
f 28//122 146//121 88//123
f 28//122 88//123 161//124
f 28//122 161//124 91//125
f 28//122 91//125 148//114
f 28//122 148//114 59//113
f 29//126 60//127 128//128
f 29//126 128//128 63//129
f 29//126 63//129 147//130
f 29//126 147//130 95//131
f 29//126 95//131 159//103
f 29//126 159//103 97//102
f 29//126 97//102 145//99
f 29//126 145//99 60//127
f 30//132 61//133 128//128
f 30//132 128//128 60//127
f 30//132 60//127 145//99
f 30//132 145//99 86//98
f 30//132 86//98 154//7
f 30//132 154//7 78//6
f 30//132 78//6 137//5
f 30//132 137//5 61//133
f 31//134 62//135 128//128
f 31//134 128//128 61//133
f 31//134 61//133 137//5
f 31//134 137//5 77//25
f 31//134 77//25 152//24
f 31//134 152//24 92//136
f 31//134 92//136 149//137
f 31//134 149//137 62//135
f 32//138 63//129 128//128
f 32//138 128//128 62//135
f 32//138 62//135 149//137
f 32//138 149//137 93//139
f 32//138 93//139 162//140
f 32//138 162//140 89//141
f 32//138 89//141 147//130
f 32//138 147//130 63//129
f 33//142 65//143 129//144
f 33//142 129//144 64//145
f 33//142 64//145 149//137
f 33//142 149//137 92//136
f 33//142 92//136 152//24
f 33//142 152//24 74//63
f 33//142 74//63 135//60
f 33//142 135//60 65//143
f 34//146 111//147 129//144
f 34//146 129//144 65//143
f 34//146 65//143 135//60
f 34//146 135//60 105//59
f 34//146 105//59 151//49
f 34//146 151//49 90//115
f 34//146 90//115 148//114
f 34//146 148//114 111//147
f 35//148 66//149 129//144
f 35//148 129//144 111//147
f 35//148 111//147 148//114
f 35//148 148//114 91//125
f 35//148 91//125 161//124
f 35//148 161//124 96//150
f 35//148 96//150 150//151
f 35//148 150//151 66//149
f 36//152 64//145 129//144
f 36//152 129//144 66//149
f 36//152 66//149 150//151
f 36//152 150//151 94//153
f 36//152 94//153 162//140
f 36//152 162//140 93//139
f 36//152 93//139 149//137
f 36//152 149//137 64//145
f 37//154 109//155 130//156
f 37//154 130//156 68//157
f 37//154 68//157 143//105
f 37//154 143//105 82//104
f 37//154 82//104 159//103
f 37//154 159//103 95//131
f 37//154 95//131 147//130
f 37//154 147//130 109//155
f 38//158 110//159 130//156
f 38//158 130//156 109//155
f 38//158 109//155 147//130
f 38//158 147//130 89//141
f 38//158 89//141 162//140
f 38//158 162//140 94//153
f 38//158 94//153 150//151
f 38//158 150//151 110//159
f 39//160 67//161 130//156
f 39//160 130//156 110//159
f 39//160 110//159 150//151
f 39//160 150//151 96//150
f 39//160 96//150 161//124
f 39//160 161//124 88//123
f 39//160 88//123 146//121
f 39//160 146//121 67//161
f 40//162 68//157 130//156
f 40//162 130//156 67//161
f 40//162 67//161 146//121
f 40//162 146//121 87//120
f 40//162 87//120 160//108
f 40//162 160//108 83//107
f 40//162 83//107 143//105
f 40//162 143//105 68//157
