# Blender v2.60 (sub 0) OBJ File: 'humanfigure25.blend'
# www.blender.org
o Mesh.016_Cube-mesh.016
v 0.166689 -0.471704 -0.073769
v 0.169042 -0.471704 0.068136
v -0.170325 -0.471704 0.073830
v -0.172678 -0.471704 -0.068075
v 0.389842 -0.364774 -0.104906
v 0.444696 -0.161060 -0.165281
v 0.449929 -0.161060 0.150271
v 0.393103 -0.364774 0.091770
v 0.165359 -0.364774 0.216368
v 0.186972 -0.161060 0.365110
v -0.212695 -0.161060 0.371816
v -0.178919 -0.364774 0.222145
v -0.224904 -0.161060 -0.364473
v 0.174763 -0.161060 -0.371179
v 0.158093 -0.364774 -0.221795
v -0.186184 -0.364774 -0.216019
v -0.410668 -0.364774 0.105256
v -0.482628 -0.161060 0.165918
v -0.487860 -0.161060 -0.149635
v -0.413929 -0.364774 -0.091420
v 0.180100 0.090288 -0.467144
v -0.211256 0.090288 -0.460577
v -0.152295 0.423219 -0.456135
v 0.175053 0.423219 -0.461628
v -0.137087 0.423219 0.460990
v -0.195869 0.090288 0.467408
v 0.195487 0.090288 0.460842
v 0.190261 0.423219 0.455498
v -0.467764 0.090288 -0.191061
v -0.461169 0.090288 0.206647
v -0.358723 0.423219 0.202005
v -0.365221 0.423219 -0.189858
v 0.451995 0.090288 0.191326
v 0.445400 0.090288 -0.206382
v 0.396689 0.423219 -0.202642
v 0.403187 0.423219 0.189221
v 0.192473 0.484295 -0.199215
v -0.124424 0.484295 -0.193898
v -0.117926 0.484295 0.197964
v 0.198971 0.484295 0.192647
v -0.001913 -0.485282 -0.071563
v -0.182628 -0.485282 0.003064
v 0.431372 -0.273959 -0.134785
v 0.480618 -0.161060 -0.008064
v 0.435601 -0.273959 0.120239
v 0.420754 -0.370714 -0.007060
v 0.181642 -0.273959 0.291970
v -0.012425 -0.161060 0.394759
v -0.006116 -0.370714 0.230452
v -0.518549 -0.161060 0.008700
v -0.467115 -0.273959 -0.119710
v -0.440624 -0.370714 0.007393
v -0.462886 -0.273959 0.135314
v 0.171861 -0.273959 -0.297901
v -0.025506 -0.161060 -0.394123
v -0.016128 0.090288 -0.497003
v 0.011842 0.426612 -0.492249
v 0.182906 0.286596 -0.469673
v -0.429760 0.286596 -0.192624
v -0.497080 0.090288 0.008340
v -0.423135 0.286596 0.206934
v -0.387759 0.426612 0.006506
v 0.000359 0.090288 0.497267
v 0.198376 0.286596 0.463275
v 0.028156 0.426612 0.491577
v 0.481311 0.090288 -0.008076
v 0.434021 0.286596 -0.207117
v 0.427757 0.426612 -0.007177
v 0.440647 0.286596 0.192441
v 0.036105 0.492050 -0.211186
v 0.043087 0.492050 0.209858
v 0.208954 0.492050 -0.003506
v 0.155400 -0.431393 0.140894
v -0.165516 -0.431393 -0.140724
v 0.306238 -0.431393 -0.082336
v 0.308797 -0.431393 0.072017
v -0.318913 -0.431393 -0.071847
v -0.316354 -0.431393 0.082506
v 0.444483 -0.036253 -0.190959
v 0.450567 -0.036253 0.175941
v 0.189028 -0.036253 0.424997
v -0.485099 -0.036253 -0.175362
v -0.479015 -0.036253 0.191538
v 0.174832 -0.036253 -0.431102
v 0.307701 -0.358833 0.172579
v 0.352192 -0.161060 0.283428
v 0.301808 -0.358833 -0.182806
v 0.342599 -0.161060 -0.295085
v -0.329482 -0.358833 -0.172214
v -0.390123 -0.161060 -0.282791
v -0.323589 -0.358833 0.183172
v -0.380531 -0.161060 0.295722
v -0.360582 0.090288 0.370717
v -0.275903 0.419825 0.364284
v 0.173261 0.461270 -0.362562
v 0.344813 0.090288 -0.370452
v 0.311836 0.419825 -0.364887
v -0.372673 0.090288 -0.358414
v -0.287827 0.419825 -0.354826
v -0.259914 0.461270 0.185752
v -0.265928 0.461270 -0.176929
v 0.356904 0.090288 0.358679
v 0.323760 0.419825 0.354223
v 0.185185 0.461270 0.356548
v 0.326684 0.461270 0.175910
v 0.320670 0.461270 -0.186771
v -0.124429 0.461270 -0.357567
v -0.112505 0.461270 0.361543
v -0.209364 -0.036253 0.431682
v -0.223560 -0.036253 -0.424418
v -0.160758 -0.431393 0.146198
v 0.150642 -0.431393 -0.146029
v -0.129762 0.492050 0.002177
v -0.187490 0.286596 -0.463458
v -0.172020 0.286596 0.469490
v -0.203375 -0.273959 0.298430
v -0.213156 -0.273959 -0.291441
v -0.013754 -0.370714 -0.230118
v 0.000460 -0.485282 0.071587
v 0.181175 -0.485282 -0.003040
v 0.000433 -0.499709 -0.000007
v 0.465719 -0.275444 -0.007814
v -0.010416 -0.275444 0.315153
v -0.496994 -0.275444 0.008339
v -0.020859 -0.275444 -0.314629
v -0.002592 0.288165 -0.500027
v -0.456941 0.288165 0.007667
v 0.013987 0.288165 0.499836
v 0.468335 0.288165 -0.007858
v 0.042064 0.500291 -0.000706
v -0.001750 -0.442213 0.147110
v -0.006626 -0.442213 -0.146970
v 0.330861 -0.442213 -0.005551
v -0.339237 -0.442213 0.005692
v 0.480724 -0.036253 -0.008066
v -0.009661 -0.036253 0.458914
v -0.515256 -0.036253 0.008645
v -0.024871 -0.036253 -0.458335
v 0.340936 -0.272474 0.227469
v 0.333204 -0.272474 -0.238780
v -0.372688 -0.272474 -0.226936
v -0.364957 -0.272474 0.239313
v -0.328206 0.285027 0.371951
v 0.025826 0.467450 -0.386672
v 0.338585 0.285027 -0.372125
v -0.340356 0.285027 -0.360733
v -0.281408 0.467450 0.004722
v 0.350734 0.285027 0.360559
v 0.038632 0.467450 0.385590
v 0.345866 0.467450 -0.005803
v 0.257792 -0.409469 -0.138246
v 0.262232 -0.409469 0.129521
v -0.275873 -0.409469 -0.129292
v -0.271432 -0.409469 0.138475
v 0.342350 -0.036253 -0.342162
v 0.353504 -0.036253 0.330487
v -0.388035 -0.036253 -0.329908
v -0.376882 -0.036253 0.342742
v -0.219950 0.448747 0.309484
v -0.230088 0.448747 -0.301933
v 0.283345 0.448747 0.301040
v 0.273206 0.448747 -0.310377
vn 0.153172 -0.920896 -0.358409
vn 0.185949 -0.982543 -0.003082
vn 0.001282 -0.999969 0.000000
vn -0.004913 -0.936979 -0.349284
vn -0.009095 -0.817774 -0.575457
vn 0.126621 -0.805811 -0.578448
vn 0.259713 -0.778832 -0.570879
vn 0.380413 -0.841639 -0.383221
vn 0.465529 -0.884976 -0.007721
vn 0.165105 -0.920865 0.353130
vn 0.006775 -0.936979 0.349254
vn 0.393017 -0.841609 0.370373
vn 0.278726 -0.778802 0.561937
vn 0.145940 -0.805780 0.573901
vn 0.010193 -0.817774 0.575427
vn -0.147740 -0.924711 0.350810
vn -0.177770 -0.984039 0.002930
vn -0.123173 -0.812983 0.569048
vn -0.249306 -0.794549 0.553606
vn -0.358592 -0.858547 0.366466
vn -0.433058 -0.901334 0.007172
vn -0.159429 -0.924680 -0.345683
vn -0.370647 -0.858486 -0.354350
vn -0.267708 -0.794519 -0.545000
vn -0.142186 -0.812952 -0.564653
vn 0.648274 -0.631184 -0.425764
vn 0.818964 -0.363842 -0.443709
vn 0.952696 -0.303415 -0.015809
vn 0.777795 -0.628346 -0.012909
vn 0.375866 -0.660482 -0.649953
vn 0.499985 -0.490616 -0.713614
vn 0.889981 -0.167211 -0.424146
vn 0.996002 -0.087649 -0.016511
vn 0.588580 -0.338511 -0.734123
vn 0.646199 -0.225745 -0.728965
vn 0.916562 -0.081912 -0.391339
vn 0.999664 -0.019349 -0.016572
vn 0.903592 -0.167180 0.394360
vn 0.833277 -0.363781 0.416242
vn 0.929075 -0.081912 0.360668
vn 0.670156 -0.225715 0.707022
vn 0.612781 -0.338450 0.714072
vn 0.523576 -0.490555 0.696554
vn 0.662130 -0.631153 0.403974
vn 0.397412 -0.660451 0.637043
vn 0.167882 -0.694479 0.699637
vn 0.217200 -0.579760 0.785272
vn 0.013153 -0.608417 0.793481
vn 0.012055 -0.708884 0.705191
vn 0.269326 -0.463698 0.844050
vn 0.013276 -0.501236 0.865169
vn 0.315714 -0.334269 0.887997
vn 0.012329 -0.360912 0.932493
vn -0.243721 -0.463912 0.851650
vn -0.189093 -0.590503 0.784539
vn -0.295480 -0.306070 0.904965
vn -0.658925 -0.164037 0.734062
vn -0.591784 -0.340068 0.730827
vn -0.491012 -0.519822 0.699026
vn -0.141301 -0.705374 0.694571
vn -0.360759 -0.688131 0.629505
vn -0.272134 -0.463881 -0.843043
vn -0.015717 -0.501236 -0.865139
vn -0.013428 -0.608417 -0.793481
vn -0.215308 -0.590472 -0.777764
vn -0.514115 -0.519761 -0.682272
vn -0.615864 -0.340007 -0.710685
vn -0.683065 -0.164006 -0.711692
vn -0.325632 -0.306040 -0.894559
vn -0.018921 -0.360912 -0.932371
vn 0.240883 -0.463729 -0.852565
vn 0.190741 -0.579821 -0.792077
vn 0.285806 -0.334300 -0.898068
vn 0.144322 -0.694510 -0.704825
vn -0.011567 -0.708884 -0.705191
vn -0.164525 -0.705344 -0.689474
vn -0.381664 -0.688070 -0.617145
vn -0.613117 -0.677999 0.405408
vn -0.800287 -0.417493 0.430311
vn -0.929167 -0.369304 0.015412
vn -0.730857 -0.682394 0.012116
vn -0.889950 -0.175970 0.420667
vn -0.994720 -0.101047 0.016480
vn -0.920255 0.000122 0.391308
vn -0.997559 0.067476 0.016541
vn -0.903439 -0.175939 -0.390881
vn -0.814203 -0.417463 -0.403455
vn -0.932737 0.000122 -0.360515
vn -0.626301 -0.677938 -0.384808
vn 0.326518 -0.137547 -0.935118
vn -0.017090 -0.143803 -0.989441
vn -0.018799 0.032411 -0.999268
vn 0.359630 0.037080 -0.932340
vn 0.721763 0.095309 -0.685507
vn 0.690207 -0.080203 -0.719108
vn -0.359691 -0.092105 -0.928495
vn -0.390545 0.100497 -0.915067
vn -0.714499 0.014801 -0.699454
vn -0.730338 0.209937 -0.649983
vn -0.316050 0.598224 -0.736351
vn -0.008362 0.571306 -0.820673
vn -0.567675 0.647206 -0.508774
vn -0.246345 0.949309 -0.195166
vn -0.144230 0.961943 -0.231941
vn 0.000092 0.965636 -0.259804
vn 0.312571 0.558580 -0.768273
vn 0.156102 0.953551 -0.257515
vn 0.281594 0.930937 -0.232368
vn 0.598712 0.571703 -0.560961
vn -0.291208 0.598254 0.746483
vn -0.359691 0.100497 0.927610
vn 0.014679 0.032411 0.999359
vn 0.019105 0.571306 0.820490
vn 0.008789 0.965636 0.259682
vn -0.136387 0.961974 0.236610
vn -0.239692 0.949309 0.203253
vn -0.550371 0.647237 0.527390
vn -0.708243 0.209998 0.673971
vn -0.328410 -0.092105 0.940001
vn 0.016053 -0.143803 0.989471
vn -0.690756 0.014801 0.722892
vn 0.357646 -0.137547 0.923643
vn 0.390667 0.037080 0.919767
vn 0.713797 -0.080203 0.695700
vn 0.744224 0.095279 0.661061
vn 0.338115 0.558550 0.757378
vn 0.617084 0.571673 0.540696
vn 0.289224 0.930937 0.222877
vn 0.164647 0.953551 0.252205
vn -0.935331 0.122410 -0.331889
vn -0.986724 0.161504 0.016358
vn -0.948637 0.315928 0.015717
vn -0.910886 0.290292 -0.293252
vn -0.923795 0.122410 0.362774
vn -0.900632 0.290323 0.323344
vn -0.666097 0.705954 0.240699
vn -0.687887 0.725700 0.011383
vn -0.256813 0.959929 0.111850
vn -0.265145 0.964171 0.004395
vn -0.673727 0.705924 -0.218451
vn -0.260414 0.959929 -0.103275
vn 0.942808 -0.007874 0.333140
vn 0.999603 0.021851 -0.016572
vn 0.985687 0.167730 -0.016327
vn 0.940947 0.148991 0.303934
vn 0.931242 -0.007874 -0.364269
vn 0.930326 0.148991 -0.335032
vn 0.744560 0.611194 -0.268349
vn 0.779015 0.626850 -0.012909
vn 0.307993 0.942228 -0.131504
vn 0.321543 0.946867 -0.005310
vn 0.753075 0.611194 0.243477
vn 0.312235 0.942228 0.121220
vn 0.123356 0.986999 -0.102725
vn 0.000061 0.995575 -0.093661
vn 0.001129 0.999969 0.000000
vn 0.118290 0.992950 -0.001953
vn -0.114719 0.989196 -0.091159
vn -0.107700 0.994171 0.001770
vn -0.111606 0.989196 0.094913
vn 0.003204 0.995575 0.093600
vn 0.126713 0.986999 0.098605
usemtl Orange
s 1
f 1//1 120//2 121//3
f 1//1 121//3 41//4
f 1//1 41//4 132//5
f 1//1 132//5 112//6
f 1//1 112//6 151//7
f 1//1 151//7 75//8
f 1//1 75//8 133//9
f 1//1 133//9 120//2
f 2//10 119//11 121//3
f 2//10 121//3 120//2
f 2//10 120//2 133//9
f 2//10 133//9 76//12
f 2//10 76//12 152//13
f 2//10 152//13 73//14
f 2//10 73//14 131//15
f 2//10 131//15 119//11
f 3//16 42//17 121//3
f 3//16 121//3 119//11
f 3//16 119//11 131//15
f 3//16 131//15 111//18
f 3//16 111//18 154//19
f 3//16 154//19 78//20
f 3//16 78//20 134//21
f 3//16 134//21 42//17
f 4//22 41//4 121//3
f 4//22 121//3 42//17
f 4//22 42//17 134//21
f 4//22 134//21 77//23
f 4//22 77//23 153//24
f 4//22 153//24 74//25
f 4//22 74//25 132//5
f 4//22 132//5 41//4
f 5//26 43//27 122//28
f 5//26 122//28 46//29
f 5//26 46//29 133//9
f 5//26 133//9 75//8
f 5//26 75//8 151//7
f 5//26 151//7 87//30
f 5//26 87//30 140//31
f 5//26 140//31 43//27
f 6//32 44//33 122//28
f 6//32 122//28 43//27
f 6//32 43//27 140//31
f 6//32 140//31 88//34
f 6//32 88//34 155//35
f 6//32 155//35 79//36
f 6//32 79//36 135//37
f 6//32 135//37 44//33
f 7//38 45//39 122//28
f 7//38 122//28 44//33
f 7//38 44//33 135//37
f 7//38 135//37 80//40
f 7//38 80//40 156//41
f 7//38 156//41 86//42
f 7//38 86//42 139//43
f 7//38 139//43 45//39
f 8//44 46//29 122//28
f 8//44 122//28 45//39
f 8//44 45//39 139//43
f 8//44 139//43 85//45
f 8//44 85//45 152//13
f 8//44 152//13 76//12
f 8//44 76//12 133//9
f 8//44 133//9 46//29
f 9//46 47//47 123//48
f 9//46 123//48 49//49
f 9//46 49//49 131//15
f 9//46 131//15 73//14
f 9//46 73//14 152//13
f 9//46 152//13 85//45
f 9//46 85//45 139//43
f 9//46 139//43 47//47
f 10//50 48//51 123//48
f 10//50 123//48 47//47
f 10//50 47//47 139//43
f 10//50 139//43 86//42
f 10//50 86//42 156//41
f 10//50 156//41 81//52
f 10//50 81//52 136//53
f 10//50 136//53 48//51
f 11//54 116//55 123//48
f 11//54 123//48 48//51
f 11//54 48//51 136//53
f 11//54 136//53 109//56
f 11//54 109//56 158//57
f 11//54 158//57 92//58
f 11//54 92//58 142//59
f 11//54 142//59 116//55
f 12//60 49//49 123//48
f 12//60 123//48 116//55
f 12//60 116//55 142//59
f 12//60 142//59 91//61
f 12//60 91//61 154//19
f 12//60 154//19 111//18
f 12//60 111//18 131//15
f 12//60 131//15 49//49
f 13//62 55//63 125//64
f 13//62 125//64 117//65
f 13//62 117//65 141//66
f 13//62 141//66 90//67
f 13//62 90//67 157//68
f 13//62 157//68 110//69
f 13//62 110//69 138//70
f 13//62 138//70 55//63
f 14//71 54//72 125//64
f 14//71 125//64 55//63
f 14//71 55//63 138//70
f 14//71 138//70 84//73
f 14//71 84//73 155//35
f 14//71 155//35 88//34
f 14//71 88//34 140//31
f 14//71 140//31 54//72
f 15//74 118//75 125//64
f 15//74 125//64 54//72
f 15//74 54//72 140//31
f 15//74 140//31 87//30
f 15//74 87//30 151//7
f 15//74 151//7 112//6
f 15//74 112//6 132//5
f 15//74 132//5 118//75
f 16//76 117//65 125//64
f 16//76 125//64 118//75
f 16//76 118//75 132//5
f 16//76 132//5 74//25
f 16//76 74//25 153//24
f 16//76 153//24 89//77
f 16//76 89//77 141//66
f 16//76 141//66 117//65
f 17//78 53//79 124//80
f 17//78 124//80 52//81
f 17//78 52//81 134//21
f 17//78 134//21 78//20
f 17//78 78//20 154//19
f 17//78 154//19 91//61
f 17//78 91//61 142//59
f 17//78 142//59 53//79
f 18//82 50//83 124//80
f 18//82 124//80 53//79
f 18//82 53//79 142//59
f 18//82 142//59 92//58
f 18//82 92//58 158//57
f 18//82 158//57 83//84
f 18//82 83//84 137//85
f 18//82 137//85 50//83
f 19//86 51//87 124//80
f 19//86 124//80 50//83
f 19//86 50//83 137//85
f 19//86 137//85 82//88
f 19//86 82//88 157//68
f 19//86 157//68 90//67
f 19//86 90//67 141//66
f 19//86 141//66 51//87
f 20//89 52//81 124//80
f 20//89 124//80 51//87
f 20//89 51//87 141//66
f 20//89 141//66 89//77
f 20//89 89//77 153//24
f 20//89 153//24 77//23
f 20//89 77//23 134//21
f 20//89 134//21 52//81
f 21//90 56//91 126//92
f 21//90 126//92 58//93
f 21//90 58//93 145//94
f 21//90 145//94 96//95
f 21//90 96//95 155//35
f 21//90 155//35 84//73
f 21//90 84//73 138//70
f 21//90 138//70 56//91
f 22//96 114//97 126//92
f 22//96 126//92 56//91
f 22//96 56//91 138//70
f 22//96 138//70 110//69
f 22//96 110//69 157//68
f 22//96 157//68 98//98
f 22//96 98//98 146//99
f 22//96 146//99 114//97
f 23//100 57//101 126//92
f 23//100 126//92 114//97
f 23//100 114//97 146//99
f 23//100 146//99 99//102
f 23//100 99//102 160//103
f 23//100 160//103 107//104
f 23//100 107//104 144//105
f 23//100 144//105 57//101
f 24//106 58//93 126//92
f 24//106 126//92 57//101
f 24//106 57//101 144//105
f 24//106 144//105 95//107
f 24//106 95//107 162//108
f 24//106 162//108 97//109
f 24//106 97//109 145//94
f 24//106 145//94 58//93
f 25//110 115//111 128//112
f 25//110 128//112 65//113
f 25//110 65//113 149//114
f 25//110 149//114 108//115
f 25//110 108//115 159//116
f 25//110 159//116 94//117
f 25//110 94//117 143//118
f 25//110 143//118 115//111
f 26//119 63//120 128//112
f 26//119 128//112 115//111
f 26//119 115//111 143//118
f 26//119 143//118 93//121
f 26//119 93//121 158//57
f 26//119 158//57 109//56
f 26//119 109//56 136//53
f 26//119 136//53 63//120
f 27//122 64//123 128//112
f 27//122 128//112 63//120
f 27//122 63//120 136//53
f 27//122 136//53 81//52
f 27//122 81//52 156//41
f 27//122 156//41 102//124
f 27//122 102//124 148//125
f 27//122 148//125 64//123
f 28//126 65//113 128//112
f 28//126 128//112 64//123
f 28//126 64//123 148//125
f 28//126 148//125 103//127
f 28//126 103//127 161//128
f 28//126 161//128 104//129
f 28//126 104//129 149//114
f 28//126 149//114 65//113
f 29//130 60//131 127//132
f 29//130 127//132 59//133
f 29//130 59//133 146//99
f 29//130 146//99 98//98
f 29//130 98//98 157//68
f 29//130 157//68 82//88
f 29//130 82//88 137//85
f 29//130 137//85 60//131
f 30//134 61//135 127//132
f 30//134 127//132 60//131
f 30//134 60//131 137//85
f 30//134 137//85 83//84
f 30//134 83//84 158//57
f 30//134 158//57 93//121
f 30//134 93//121 143//118
f 30//134 143//118 61//135
f 31//136 62//137 127//132
f 31//136 127//132 61//135
f 31//136 61//135 143//118
f 31//136 143//118 94//117
f 31//136 94//117 159//116
f 31//136 159//116 100//138
f 31//136 100//138 147//139
f 31//136 147//139 62//137
f 32//140 59//133 127//132
f 32//140 127//132 62//137
f 32//140 62//137 147//139
f 32//140 147//139 101//141
f 32//140 101//141 160//103
f 32//140 160//103 99//102
f 32//140 99//102 146//99
f 32//140 146//99 59//133
f 33//142 66//143 129//144
f 33//142 129//144 69//145
f 33//142 69//145 148//125
f 33//142 148//125 102//124
f 33//142 102//124 156//41
f 33//142 156//41 80//40
f 33//142 80//40 135//37
f 33//142 135//37 66//143
f 34//146 67//147 129//144
f 34//146 129//144 66//143
f 34//146 66//143 135//37
f 34//146 135//37 79//36
f 34//146 79//36 155//35
f 34//146 155//35 96//95
f 34//146 96//95 145//94
f 34//146 145//94 67//147
f 35//148 68//149 129//144
f 35//148 129//144 67//147
f 35//148 67//147 145//94
f 35//148 145//94 97//109
f 35//148 97//109 162//108
f 35//148 162//108 106//150
f 35//148 106//150 150//151
f 35//148 150//151 68//149
f 36//152 69//145 129//144
f 36//152 129//144 68//149
f 36//152 68//149 150//151
f 36//152 150//151 105//153
f 36//152 105//153 161//128
f 36//152 161//128 103//127
f 36//152 103//127 148//125
f 36//152 148//125 69//145
f 37//154 70//155 130//156
f 37//154 130//156 72//157
f 37//154 72//157 150//151
f 37//154 150//151 106//150
f 37//154 106//150 162//108
f 37//154 162//108 95//107
f 37//154 95//107 144//105
f 37//154 144//105 70//155
f 38//158 113//159 130//156
f 38//158 130//156 70//155
f 38//158 70//155 144//105
f 38//158 144//105 107//104
f 38//158 107//104 160//103
f 38//158 160//103 101//141
f 38//158 101//141 147//139
f 38//158 147//139 113//159
f 39//160 71//161 130//156
f 39//160 130//156 113//159
f 39//160 113//159 147//139
f 39//160 147//139 100//138
f 39//160 100//138 159//116
f 39//160 159//116 108//115
f 39//160 108//115 149//114
f 39//160 149//114 71//161
f 40//162 72//157 130//156
f 40//162 130//156 71//161
f 40//162 71//161 149//114
f 40//162 149//114 104//129
f 40//162 104//129 161//128
f 40//162 161//128 105//153
f 40//162 105//153 150//151
f 40//162 150//151 72//157
